<?xml version="1.0" encoding="utf-8"?>
<!-- Generator: Adobe Illustrator 25.2.1, SVG Export Plug-In . SVG Version: 6.00 Build 0)  -->
<svg version="1.1" id="Layer_2_1_" xmlns="http://www.w3.org/2000/svg" xmlns:xlink="http://www.w3.org/1999/xlink" x="0px" y="0px"
	 viewBox="0 0 245.5 66" style="enable-background:new 0 0 245.5 66;" xml:space="preserve">
<style type="text/css">
	.st0{fill:#20202F;}
	.st1{fill:#775DD8;}
	.st2{fill:#624EC1;}
	.st3{fill:#B09BFA;}
</style>
<polygon class="st0" points="57.9,20.6 57.9,25.1 64.2,25.1 64.2,45.6 69.5,45.6 69.5,25.1 75.7,25.1 75.7,20.6 "/>
<path class="st0" d="M75.2,45.6V27.3h4.7v4.4l-0.3-0.6c0.2-1.3,0.9-2.4,2-3.1c1-0.6,2.1-0.9,3.3-0.8h1.1v4.4h-1.6
	c-1.1,0-2.2,0.4-3,1.1c-0.8,0.9-1.2,2-1.1,3.2v9.9L75.2,45.6z"/>
<path class="st0" d="M102.4,30.1c-0.7-1-1.6-1.8-2.8-2.3c-1.3-0.6-2.6-0.9-4-0.8c-1.2,0-2.4,0.2-3.6,0.6c-1,0.4-2,0.9-2.8,1.7
	c-0.8,0.7-1.4,1.6-1.7,2.7l4,2c0.3-0.8,0.8-1.5,1.5-2c0.7-0.5,1.5-0.7,2.4-0.7c0.8,0,1.6,0.2,2.2,0.7c0.5,0.4,0.8,1.1,0.8,1.7v0.5
	l-5.1,0.8C92,35,90.8,35.4,89.7,36c-0.9,0.5-1.6,1.1-2.2,2c-0.5,0.8-0.8,1.7-0.9,2.7c0,1,0.2,2,0.8,2.8c0.5,0.8,1.3,1.4,2.2,1.8
	c1.1,0.4,2.2,0.7,3.4,0.6c0.9,0,1.8-0.1,2.7-0.4c0.8-0.3,1.5-0.7,2.2-1.2c0.2-0.2,0.4-0.4,0.6-0.6v1.8h4.7v-12
	C103.3,32.4,103,31.1,102.4,30.1z M97.8,40.3c-0.3,0.6-0.8,1.1-1.5,1.4c-0.7,0.4-1.4,0.6-2.2,0.5c-0.6,0-1.1-0.1-1.6-0.5
	c-0.4-0.3-0.7-0.8-0.6-1.3c0-0.5,0.2-1,0.6-1.4c0.5-0.4,1-0.6,1.6-0.7l4.2-0.7v0.6C98.3,39,98.1,39.7,97.8,40.3z"/>
<path class="st0" d="M115.3,46c-1.7,0-3.4-0.4-4.9-1.3c-3-1.7-4.9-4.9-4.8-8.4c0-1.7,0.4-3.4,1.3-4.9c0.8-1.4,2-2.6,3.5-3.4
	c2.7-1.4,5.9-1.6,8.8-0.5c1.1,0.4,2.1,1.1,3,2c0.8,0.8,1.4,1.8,1.8,3l-4.4,1.9c-0.3-0.9-0.9-1.6-1.6-2.2c-0.8-0.5-1.7-0.8-2.6-0.8
	c-0.8,0-1.6,0.2-2.3,0.6c-0.7,0.4-1.3,1-1.6,1.8c-0.8,1.7-0.8,3.6,0,5.2c0.4,0.7,0.9,1.3,1.6,1.8c0.7,0.4,1.5,0.7,2.3,0.6
	c0.9,0,1.9-0.3,2.6-0.8c0.7-0.5,1.3-1.3,1.6-2.2l4.4,2c-0.4,1.1-0.9,2.1-1.7,2.9c-0.8,0.9-1.9,1.5-3,2C118,45.8,116.7,46,115.3,46z"
	/>
<polygon class="st0" points="143.6,27.3 137.4,27.3 131.2,33.9 131.2,20.2 126.2,20.2 126.2,45.6 131.2,45.6 131.2,40 133.2,37.8 
	137.9,45.6 143.6,45.6 137,34.7 "/>
<path class="st0" d="M150.8,45.6v-23h-7v-2h16v2H153v23H150.8z"/>
<path class="st0" d="M160.6,45.6V27.8h2v3.4l-0.4-0.3c0.4-1,1.1-1.9,2-2.4c1-0.6,2.2-0.9,3.3-0.9h1v2h-1.3c-1.3-0.1-2.6,0.4-3.4,1.4
	c-0.9,1-1.3,2.4-1.2,3.7v10.9H160.6z"/>
<path class="st0" d="M179.4,46c-1.6,0-3.2-0.4-4.5-1.2c-1.3-0.8-2.4-2-3.2-3.3c-0.8-1.5-1.2-3.1-1.1-4.8c0-1.7,0.4-3.3,1.1-4.8
	c0.7-1.4,1.8-2.5,3.1-3.3c1.3-0.8,2.8-1.2,4.4-1.2c1.1,0,2.3,0.2,3.3,0.7c1,0.4,1.8,1.1,2.6,1.9c0.7,0.8,1.3,1.7,1.7,2.7
	c0.4,1,0.6,2.1,0.6,3.2c0,0.2,0,0.5,0,0.7c0,0.2,0,0.5,0,0.7h-15.6v-1.8H186l-0.9,0.7c0.2-1.2,0-2.4-0.6-3.5c-0.5-1-1.3-1.9-2.2-2.5
	c-1-0.6-2.1-0.9-3.2-0.9c-1.2,0-2.4,0.4-3.4,1.1c-1,0.6-1.8,1.5-2.4,2.6c-0.6,1.2-0.9,2.4-0.8,3.7c-0.1,1.3,0.2,2.7,0.8,3.9
	c0.6,1.1,1.4,2,2.5,2.6c1.1,0.6,2.3,1,3.5,0.9c1.2,0,2.4-0.3,3.4-0.9c1-0.6,1.8-1.5,2.3-2.4l1.7,0.9c-0.4,0.9-1,1.6-1.7,2.2
	c-0.7,0.7-1.6,1.2-2.6,1.5C181.6,45.8,180.5,46,179.4,46z"/>
<path class="st0" d="M191.4,45.6V27.8h2v3.6l-0.5-0.2c0.4-1.1,1.1-2.1,2.2-2.8c1.1-0.7,2.3-1.1,3.6-1.1c1.2,0,2.3,0.3,3.4,0.8
	c2.1,1.1,3.4,3.4,3.3,5.8v11.6h-2V34.5c0-1-0.2-1.9-0.6-2.8c-0.4-0.7-1-1.4-1.8-1.8c-0.8-0.4-1.7-0.6-2.6-0.6
	c-0.9,0-1.9,0.2-2.7,0.7c-0.8,0.5-1.4,1.2-1.7,2c-0.4,0.9-0.6,1.9-0.6,2.9v10.7L191.4,45.6z"/>
<path class="st0" d="M217.9,46c-1.6,0-3.1-0.4-4.5-1.2c-1.3-0.8-2.4-2-3.1-3.3c-0.8-1.5-1.2-3.1-1.1-4.8c0-1.7,0.4-3.3,1.1-4.8
	c0.7-1.4,1.8-2.5,3.1-3.3c1.3-0.8,2.9-1.2,4.5-1.2c1.5,0,3,0.4,4.4,1.2c1.2,0.8,2.2,1.8,2.9,3.1l-0.3,0.6v-12h2v25.4h-2v-4.6
	l0.3,0.5c-0.6,1.4-1.6,2.5-2.9,3.3C221,45.6,219.5,46,217.9,46z M217.9,44c1.2,0,2.4-0.3,3.5-1c1-0.6,1.9-1.5,2.4-2.6
	c0.6-1.1,0.9-2.4,0.9-3.7c0-1.3-0.3-2.6-0.9-3.8c-0.6-1.1-1.4-2-2.4-2.6c-2.1-1.3-4.7-1.3-6.9,0c-1,0.6-1.8,1.5-2.4,2.6
	c-0.6,1.2-0.9,2.5-0.9,3.8c0,1.3,0.3,2.6,0.9,3.7c0.5,1.1,1.4,2,2.4,2.6C215.6,43.7,216.8,44,217.9,44L217.9,44z"/>
<path class="st0" d="M231.8,53c-0.3,0-0.7,0-1,0c-0.4,0-0.7-0.1-1.1-0.3v-1.8l1,0.1h1c0.9,0,1.8-0.2,2.6-0.8
	c0.8-0.7,1.3-1.6,1.7-2.6l1.3-3v1.9l-7.5-18.7h2.2l6.5,16.2h-0.8l6.5-16.2h2.3l-8.4,20.3c-0.3,0.8-0.7,1.5-1.2,2.2
	c-0.5,0.8-1.2,1.4-2,1.9C233.8,52.7,232.8,53,231.8,53z"/>
<circle class="st1" cx="38.1" cy="50.5" r="4.3"/>
<circle class="st2" cx="13.9" cy="19.9" r="13.2"/>
<path class="st3" d="M26,49.2c-7.8,0-14.3-6.2-14.6-14c-3.8-0.6-7.2-2.6-9.6-5.6c-0.3,1.6-0.5,3.3-0.5,5c0,13.6,11.1,24.6,24.7,24.7
	c2.8-0.2,4.9-2.6,4.7-5.4C30.6,51.4,28.6,49.3,26,49.2z"/>
<path class="st3" d="M29.4,19.9c0,0.2,0,0.3,0,0.5c6.6,1.5,11.3,7.4,11.3,14.2c0,3.8-1.5,7.5-4.2,10.2c0.6-0.2,1.3-0.4,2-0.4
	c3.1,0,5.7,2.5,5.7,5.7l0,0c0,0.5-0.1,0.9-0.2,1.4c4.3-4.6,6.7-10.6,6.7-16.9C50.7,21,39.6,9.9,26,9.9h-0.3
	C28.1,12.7,29.4,16.3,29.4,19.9z"/>
</svg>
